Coordinates
version=1
nRows=19
nColumns=34
inDegrees=yes

Units are S.I. units (second, meters, Newtons, ...)
If the header above contains a line with 'inDegrees', this indicates whether rotational values are in degrees (yes) or radians (no).

endheader
time	pelvis_tilt	pelvis_list	pelvis_rotation	pelvis_tx	pelvis_ty	pelvis_tz	hip_flexion_r	hip_adduction_r	hip_rotation_r	knee_angle_r	ankle_angle_r	subtalar_angle_r	mtp_angle_r	hip_flexion_l	hip_adduction_l	hip_rotation_l	knee_angle_l	ankle_angle_l	subtalar_angle_l	mtp_angle_l	lumbar_extension	lumbar_bending	lumbar_rotation	arm_flex_r	arm_add_r	arm_rot_r	elbow_flex_r	pro_sup_r	arm_flex_l	arm_add_l	arm_rot_l	elbow_flex_l	pro_sup_l
      0.00000000	      1.20481953	     -0.56558849	     -8.72427058	     -0.04453807	      1.26689849	     -0.10310737	     -3.52159895	     -1.50328431	     -2.40309803	      4.03043405	      5.46471471	     -2.25820043	      0.00000000	     -7.59340577	     -0.62870600	     -1.49490568	      0.00079124	      6.53695168	      3.46696017	      0.00000000	     -5.71793117	      2.63952329	      1.31946329	      8.01842756	     -7.21945877	     44.02956616	     16.95307227	     34.10163657	      2.55640387	     -6.71184481	     32.00343019	     22.28813338	     32.59519475
      0.01666670	      0.90485248	     -0.67850549	     -8.44585772	     -0.04395678	      1.26736296	     -0.10275502	     -3.77162324	     -0.99417870	     -0.67219776	      3.07730566	      6.60904592	     -1.10139909	      0.00000000	     -7.16689440	     -0.55038301	     -0.64604311	      0.00000000	      6.47423285	      3.79537382	      0.00000000	     -4.79016438	      2.98844784	      0.95791879	      7.81073562	     -6.91880127	     43.61350023	     16.74012858	     34.32739408	      2.46088611	     -6.41054044	     31.60791961	     22.37333095	     32.85623419
      0.03333330	     -0.08630447	     -0.39666791	     -8.43200600	     -0.04223426	      1.27257432	     -0.10104733	     -3.05604496	     -1.05020160	     -2.01495174	      2.62586794	      8.09591427	      1.59586047	      0.00000000	     -6.12846022	     -0.36658425	     -0.44771986	      0.15236097	      6.19029916	      3.35448092	      0.00000000	     -3.32933298	      2.63064515	      0.70301484	      5.63383508	     -4.62161288	     14.94124950	     17.32763445	     78.13561385	      0.83264787	     -4.56931081	     10.61392673	     22.20791562	     76.77538183
      0.05000000	     -0.09083837	     -0.41771001	     -8.24485657	     -0.04632107	      1.27072739	     -0.10152523	     -2.98588655	     -0.98310130	     -1.83264815	      2.55039113	      8.14755999	      1.69347361	      0.00000000	     -6.13227387	     -0.30996063	     -0.39925876	      0.00000000	      6.18400178	      3.36996126	      0.00000000	     -3.54086224	      2.48118720	      0.61765766	      5.44857648	     -4.57022072	     14.94286451	     17.25423539	     78.14263390	      0.82450031	     -4.56239995	     10.62079138	     22.17460375	     76.77447117
      0.06666670	      0.67320468	     -0.35312415	     -7.97498331	     -0.04806266	      1.26995118	     -0.10051328	     -3.81699743	     -1.06382565	     -1.51210082	      2.46153779	      8.66071688	      1.89000129	      0.00000000	     -6.82763755	     -0.18913725	      0.25363974	      0.00000000	      6.09514657	      3.12362465	      0.00000000	     -4.77452077	      2.01538836	      0.34581086	      5.79941111	     -4.21052533	     14.65206588	     16.84852223	     78.30787009	      1.52656762	     -4.69581883	     10.99110419	     21.61584180	     76.89178154
      0.08333330	      0.73910538	     -0.30993994	     -7.88456132	     -0.05014060	      1.26865328	     -0.10023673	     -3.77686912	     -1.05172108	     -1.45053177	      2.51649410	      8.67738000	      1.88730485	      0.00000000	     -6.77908911	     -0.16360265	      0.34057555	      0.00000000	      6.19829270	      3.10499178	      0.00000000	     -4.90498746	      1.83804098	      0.31268585	      5.85859324	     -4.28499813	     14.62867758	     16.81368515	     78.32129289	      1.64585250	     -4.62477850	     11.03737901	     21.62133920	     76.90779214
      0.10000000	      1.02926917	     -0.13774633	     -7.77305768	     -0.05222679	      1.26567644	     -0.10047543	     -3.75237136	     -1.26310652	     -1.55067684	      2.86828009	      8.93463412	      1.43970514	      0.00000000	     -6.89574605	      0.02283816	      0.78379803	      0.00000000	      6.49638654	      2.93023764	      0.00000000	     -5.56556822	      1.54200048	      0.47185886	      6.17893886	     -4.24689436	     14.59440872	     16.68036855	     78.40241296	      2.16690318	     -4.63895073	     11.22563156	     21.59458230	     76.99325663
      0.11666670	      1.10875816	     -0.10538894	     -7.72881244	     -0.05166576	      1.26257614	     -0.09909080	     -3.66280832	     -1.24791377	     -1.54278942	      2.82002317	      8.94033257	      1.43751725	      0.00000000	     -6.94728632	      0.01092456	      0.78515420	      0.02854170	      6.49879133	      2.92309021	      0.00000000	     -5.56266955	      1.53506850	      0.48027627	      6.19418718	     -4.25311735	     14.59311985	     16.68131463	     78.40362614	      2.16729147	     -4.63558614	     11.22917276	     21.59342510	     76.99475821
      0.13333330	      1.86982470	     -0.02396130	     -7.59805652	     -0.05348026	      1.26437455	     -0.10006519	     -4.42805157	     -1.40110568	     -0.98420793	      2.83611825	      8.94937629	      0.17538782	      0.00000000	     -7.55952648	      0.17899057	      1.74830725	      0.14602169	      6.40742791	      1.42567150	      0.00000000	     -6.63745996	      1.16940397	      0.95063724	      6.72898687	     -4.37624107	     14.54409999	     16.18005963	     78.85858045	      2.92857977	     -4.69976961	     12.19206033	     21.31563602	     77.48156855
      0.15000000	      1.93571922	      0.02743737	     -7.49301617	     -0.05262965	      1.25986645	     -0.09898392	     -4.43446119	     -1.43412422	     -1.04331578	      2.88287111	      8.99112713	      0.09658596	      0.00000000	     -7.53765016	      0.17729800	      1.75442820	      0.27475791	      6.46850271	      1.37824434	      0.00000000	     -6.60007409	      1.08992651	      1.05456149	      6.85095823	     -4.40687462	     14.53915082	     16.21039971	     78.87529170	      2.88102193	     -4.76477035	     12.21407811	     21.29008320	     77.49641288
      0.16666670	      1.97432539	      0.18839222	     -7.36190547	     -0.05213850	      1.25838559	     -0.09941010	     -4.37347939	     -1.61473352	     -1.40789171	      3.03456190	      9.11610299	     -0.48408348	      0.00000000	     -7.30558520	      0.29831449	      2.07896285	      0.63063916	      6.95976651	      1.11721067	      0.00000000	     -6.63238613	      0.82856811	      1.17182939	      6.82579820	     -4.52633865	     14.54966088	     16.18840158	     78.99741255	      3.05263081	     -4.89992063	     12.37277012	     21.32399363	     77.59989087
      0.18333330	      1.99482205	      0.19911459	     -7.37126296	     -0.05544053	      1.26362619	     -0.09915580	     -4.38991294	     -1.61016169	     -1.40992588	      3.04022776	      9.11678516	     -0.48967494	      0.00000000	     -7.25778564	      0.29112502	      2.09302883	      0.61206311	      6.95914543	      1.11946943	      0.00000000	     -6.61829178	      0.82690784	      1.18300985	      6.83458653	     -4.53069997	     14.54935682	     16.19186667	     78.99918625	      3.04208846	     -4.90751686	     12.37467254	     21.32070374	     77.60134238
      0.20000000	      1.57770251	      0.31028863	     -7.17900607	     -0.05573429	      1.26679341	     -0.09887649	     -3.88348548	     -1.61611506	     -1.06555058	      3.08295575	      8.65567062	     -1.60869309	      0.00000000	     -6.59114915	      0.30218933	      3.18009606	      0.83446735	      6.55133564	      0.04964805	      0.00000000	     -6.14565359	      0.67377026	      1.33278581	      6.79723856	     -4.67340628	     14.65012363	     16.47516094	     79.73826957	      3.18524278	     -5.28319459	     13.34714808	     21.28601116	     78.23589203
      0.21666670	      1.53064213	      0.29363767	     -7.14937375	     -0.05666317	      1.26528289	     -0.09868448	     -3.85079041	     -1.57123888	     -1.08127483	      3.04772875	      8.61155735	     -1.59326222	      0.00000000	     -6.43926982	      0.24765421	      3.23176278	      0.79355865	      6.45901545	      0.10115932	      0.00000000	     -6.24305739	      0.62195822	      1.40554560	      6.93284814	     -4.74356786	     14.63995102	     16.49947855	     79.76941024	      3.23535075	     -5.42826200	     13.35957564	     21.27167746	     78.25856175
      0.23333330	      1.49573403	      0.29411972	     -7.01070981	     -0.05432164	      1.26792805	     -0.09835927	     -3.83847612	     -1.50416382	     -0.91042761	      3.03983870	      8.52897507	     -1.45628334	      0.00000000	     -6.32108861	      0.18534395	      3.35095494	      0.88892520	      6.27139356	      0.18462269	      0.00000000	     -6.24301831	      0.59470515	      1.41595591	      6.93766424	     -4.78334117	     14.63734982	     16.50301891	     79.81531434	      3.31438732	     -5.56195886	     13.38589205	     21.27543567	     78.29254476
      0.25000000	      1.44879299	      0.30523840	     -6.89402631	     -0.05283294	      1.26815473	     -0.09767038	     -3.88470857	     -1.48174126	     -0.86159465	      3.02169791	      8.51019228	     -1.41419728	      0.00000000	     -6.28366707	      0.13844038	      3.35079363	      0.87947783	      6.22798383	      0.18420678	      0.00000000	     -6.22279507	      0.58556325	      1.46429008	      6.96840063	     -4.78919496	     14.63606055	     16.51895511	     79.82941342	      3.27687877	     -5.61468680	     13.39354089	     21.25929494	     78.30261001
      0.26666670	      1.46028271	      0.31195262	     -6.86261976	     -0.05413611	      1.26657546	     -0.09852859	     -3.81991547	     -1.48231351	     -0.85142010	      2.97344329	      8.51128543	     -1.40652693	      0.00000000	     -6.33057492	      0.12267369	      3.34897867	      0.90025501	      6.22252711	      0.18231368	      0.00000000	     -6.22083164	      0.58230744	      1.47052608	      6.96828315	     -4.79251092	     14.63573455	     16.51993546	     79.83144571	      3.26879728	     -5.62815003	     13.39399877	     21.25528341	     78.30397322
      0.28333330	      1.27793414	      0.30168328	     -6.77620567	     -0.05480888	      1.26747397	     -0.09779571	     -3.83767424	     -1.41479427	     -0.68341191	      2.52172124	      8.44202256	     -1.21404512	      0.00000000	     -6.14703006	      0.01096714	      3.44079304	      0.88901805	      6.02415249	      0.18691762	      0.00000000	     -6.11900577	      0.51305609	      1.54473102	      6.99813141	     -4.87171597	     14.62619248	     16.56704639	     79.88639005	      3.23344786	     -5.93194815	     13.40573150	     21.20994479	     78.34144436
      0.30000000	      1.28631624	      0.29910523	     -6.77070313	     -0.05554559	      1.26385564	     -0.09802156	     -3.85474496	     -1.41854177	     -0.68462070	      2.52509203	      8.43717382	     -1.21050374	      0.00000000	     -6.12837797	      0.00654928	      3.44309525	      0.87673006	      6.02187126	      0.18557527	      0.00000000	     -6.11024697	      0.51586563	      1.55600657	      7.00870841	     -4.86919304	     14.62630797	     16.57311097	     79.88866749	      3.22600308	     -5.93718847	     13.40709600	     21.20782056	     78.34301801
